PathFileType	3	(X/Y/Z)	walking_3__view2_aligned.trc
DataRate	CameraRate	NumFrames	NumMarkers	Units	OrigDataRate	OrigDataStartFrame	OrigNumFrames
100.0	100.0	6	19	mm	100.0	1835	6318
Frame#	Time	pelvis			neck			head			hip_left			hip_right			knee_left			knee_right			ankle_left			ankle_right			heel_left			heel_right			toe_left			toe_right			shoulder_left			shoulder_right			elbow_left			elbow_right			wrist_left			wrist_right			
		X1	Y1	Z1	X2	Y2	Z2	X3	Y3	Z3	X4	Y4	Z4	X5	Y5	Z5	X6	Y6	Z6	X7	Y7	Z7	X8	Y8	Z8	X9	Y9	Z9	X10	Y10	Z10	X11	Y11	Z11	X12	Y12	Z12	X13	Y13	Z13	X14	Y14	Z14	X15	Y15	Z15	X16	Y16	Z16	X17	Y17	Z17	X18	Y18	Z18	X19	Y19	Z19	
1835	18.34000	53.811573	924.097516	156.477119	32.773845	1486.449485	218.833629	10.385454	1583.056559	361.224503	130.822390	928.254456	150.583109	-23.199633	919.940608	162.371095	161.064097	485.202683	78.259440	-58.927014	547.471233	423.481790	148.162900	128.615954	-118.590893	-92.474837	168.100270	382.442635	140.238324	94.480365	-163.323345	-93.409355	126.873330	349.671887	162.364760	24.343553	26.573634	-101.837124	99.114069	540.897179	217.217507	1434.991650	201.796389	-135.132443	1429.915723	161.122069	303.944368	1153.663945	210.139868	-198.182983	1151.548360	81.850826	298.919416	930.836696	357.287581	-264.612178	891.708051	76.609005
1836	18.35000	51.729701	924.063731	156.176442	29.996789	1486.161475	219.266382	7.153474	1582.943479	361.547924	128.681771	928.111293	150.050514	-25.222852	920.016216	162.302328	159.434102	484.279646	72.856899	-58.876989	548.157281	426.642384	145.843458	133.107964	-131.262816	-92.016015	163.579667	395.606956	137.728507	100.326743	-176.492119	-93.204086	120.754538	363.662761	160.854426	25.573103	9.792398	-100.130631	98.856077	558.596354	214.688413	1435.008022	203.105526	-137.460935	1429.544550	160.572906	301.576577	1153.929213	213.124347	-200.340368	1151.759749	77.047107	295.018329	932.103179	363.171468	-269.741532	889.826499	65.264371
1837	18.36000	50.072878	924.328696	156.619317	28.458162	1486.256460	220.316203	5.343747	1582.962201	362.644104	126.986004	928.174552	150.564101	-26.840707	920.482884	162.674493	158.467623	484.748288	74.797279	-60.006381	547.873474	425.021982	144.937628	138.165816	-137.251867	-92.424269	159.332340	399.775721	136.812166	106.730093	-183.192066	-93.702401	115.235071	368.239121	160.095323	26.688564	-0.013420	-100.188623	97.360991	566.725921	213.036979	1435.250604	204.217644	-138.786781	1429.579388	161.416057	299.727627	1154.158544	214.373224	-200.985739	1151.860927	76.429900	292.535277	932.558958	365.662036	-271.982443	888.585121	61.511610
1838	18.37000	48.416055	924.593661	157.062192	26.919536	1486.351445	221.366025	3.534021	1582.980924	363.740284	125.290237	928.237811	151.077688	-28.458561	920.949552	163.046659	157.501144	485.216930	76.737660	-61.135774	547.589667	423.401579	144.031798	143.223669	-143.240917	-92.832523	155.085014	403.944486	135.895826	113.133443	-189.892014	-94.200715	109.715603	372.815482	159.336221	27.804025	-9.819238	-100.246616	95.865904	574.855489	211.385545	1435.493185	205.329761	-140.112628	1429.614227	162.259207	297.878676	1154.387874	215.622101	-201.631109	1151.962106	75.812694	290.052226	933.014737	368.152603	-274.223353	887.343742	57.758850
1839	18.38000	46.759233	924.858626	157.505067	25.380910	1486.446429	222.415846	1.724294	1582.999646	364.836464	123.594469	928.301071	151.591275	-30.076416	921.416220	163.418824	156.534665	485.685572	78.678040	-62.265166	547.305861	421.781176	143.125968	148.281522	-149.229967	-93.240777	150.837688	408.113251	134.979486	119.536793	-196.591961	-94.699030	104.196136	377.391843	158.577118	28.919485	-19.625057	-100.304608	94.370818	582.985056	209.734110	1435.735766	206.441879	-141.438474	1429.649066	163.102358	296.029726	1154.617204	216.870978	-202.276480	1152.063284	75.195487	287.569174	933.470516	370.643171	-276.464264	886.102364	54.006089
1840	18.39000	45.102410	925.123590	157.947942	23.842283	1486.541414	223.465668	-0.085432	1583.018368	365.932644	121.898702	928.364330	152.104862	-31.694270	921.882888	163.790989	155.568186	486.154214	80.618420	-63.394558	547.022054	420.160774	142.220138	153.339374	-155.219017	-93.649030	146.590362	412.282016	134.063146	125.940143	-203.291908	-95.197344	98.676669	381.968204	157.818015	30.034946	-29.430875	-100.362601	92.875731	591.114623	208.082676	1435.978347	207.553997	-142.764321	1429.683904	163.945509	294.180775	1154.846534	218.119855	-202.921851	1152.164463	74.578281	285.086123	933.926295	373.133738	-278.705174	884.860986	50.253328
